<?xml version="1.0" encoding="utf-8"?>
<!-- Generator: Adobe Illustrator 20.0.0, SVG Export Plug-In . SVG Version: 6.00 Build 0)  -->
<svg version="1.1" id="Layer_1" xmlns="http://www.w3.org/2000/svg" xmlns:xlink="http://www.w3.org/1999/xlink" x="0px" y="0px"
	 viewBox="0 0 431 89.5" style="enable-background:new 0 0 431 89.5;" xml:space="preserve">
<style type="text/css">
	.st0{fill:none;enable-background:new    ;}
	.st1{fill:#373737;}
	.st2{fill:#2A78AC;}
	.st3{fill:#124678;}
</style>
<path class="st0" d="z"/>
<g>
	<g>
		<path class="st1" d="M217,29.7c4,4.1,6.3,9.5,6.3,15.2S221.1,56,217,60.1c-4,4-9.4,6.2-15.2,6.2c-3.8,0-7.2-1.3-10.2-4l-0.5-0.4
			V86l-10.9,3.4V24.3h10.9v3.2l0.5-0.5c3.2-3.1,6.9-3.6,10.2-3.6C207.5,23.5,212.9,25.7,217,29.7z M212.4,44.9
			c0-5.9-4.9-10.9-10.6-10.9s-10.6,5-10.6,10.9c0,5.8,4.9,10.9,10.6,10.9S212.4,50.8,212.4,44.9z"/>
		<path class="st1" d="M233.5,60.1c-4-4.1-6.3-9.5-6.3-15.2s2.2-11.1,6.3-15.2c4-4,9.4-6.2,15.2-6.2c3.8,0,7.2,1.3,10.2,4l0.5,0.4
			v-3.6h10.9v41.2h-10.9v-3.2l-0.5,0.5c-3.2,3.1-6.9,3.6-10.2,3.6C243,66.3,237.6,64.2,233.5,60.1z M238.1,44.9
			c0,5.9,4.9,10.9,10.6,10.9c5.8,0,10.6-5,10.6-10.9c0-5.8-4.9-10.9-10.6-10.9C242.9,34,238.1,39.1,238.1,44.9z"/>
		<path class="st1" d="M233.5,60.1c-4-4.1-6.3-9.5-6.3-15.2s2.2-11.1,6.3-15.2c4-4,9.4-6.2,15.2-6.2c3.8,0,7.2,1.3,10.2,4l0.5,0.4
			v-3.6h10.9v41.2h-10.9v-3.2l-0.5,0.5c-3.2,3.1-6.9,3.6-10.2,3.6C243,66.3,237.6,64.2,233.5,60.1z M238.1,44.9
			c0,5.9,4.9,10.9,10.6,10.9c5.8,0,10.6-5,10.6-10.9c0-5.8-4.9-10.9-10.6-10.9C242.9,34,238.1,39.1,238.1,44.9z"/>
		<path class="st1" d="M281.1,89.5l9.8-23.8l-16.5-41.3h12.1L296.8,50l10.4-25.6h12l-26.3,65.2H281.1z"/>
		<path class="st1" d="M281.1,89.5l9.8-23.8l-16.5-41.3h12.1L296.8,50l10.4-25.6h12l-26.3,65.2H281.1z"/>
		<path class="st1" d="M21.1,65.9c-5.6,0-10.9-2.2-14.9-6.1c-4-4-6.1-9.3-6.1-14.9S2.2,34,6.1,30c4-3.9,9.3-6,14.9-6
			c5.7,0,10.5,3,13.5,5.5l0.9,0.7v-5.4h6.7V65h-6.7v-5.4l-0.9,0.7C31.6,62.9,26.8,65.9,21.1,65.9z M21.1,30.4
			c-7.9,0-14.4,6.5-14.4,14.5s6.5,14.5,14.4,14.5s14.4-6.5,14.4-14.5S29,30.4,21.1,30.4z"/>
		<path class="st1" d="M54.2,65V31.2h-6.1v-6.3h6.1V13c0-7.3,5.8-13,13.1-13h8.4l-1.7,6.3h-6.5c-3.5,0-6.7,3.2-6.7,6.8v11.7h12.7
			v6.3H60.9V65H54.2z"/>
		<path class="st1" d="M98.8,65c-7.3,0-13.1-5.9-13.1-13.1V31.2h-6.1v-6.3h6.1V0h6.7v24.8H105v6.3H92.3v20.5c0,3.7,3.2,7,6.7,7h6.5
			l1.7,6.3H98.8z"/>
		<path class="st1" d="M127.5,65.7c-5.2,0-10-2.2-13.5-6.1c-3.2-3.5-5.1-7.9-5.4-12.6c-0.1-0.6-0.1-1.2-0.1-1.9
			c0-1.6,0.2-3.2,0.5-4.7c0.8-3.6,2.5-7,5-9.7c3.5-3.8,8.4-6,13.6-6c5.2,0,10,2.1,13.7,6c2.6,2.9,4.3,6.2,5,9.7
			c0.5,3.1,0.5,5,0.5,5.9h-31.8V47c0.9,7.1,6.3,12.5,12.5,12.6c3.8-0.2,7.6-1.7,10.2-4.2l5.6,3.3c-1.5,1.6-3.1,2.9-4.9,4
			C135.2,64.5,131.5,65.5,127.5,65.7z M127.5,30.7c-5.2,0-10,3.7-11.9,9.3l-0.1,0.1l-0.4,0.8h24.8l-0.5-0.9
			C137.6,34.4,132.8,30.7,127.5,30.7z"/>
		<path class="st1" d="M153.2,65V24.8h6.7v5.1l0.9-1c2.4-2.6,9.3-4.7,14-4.9l-1.6,6.7c-7.3,0.2-13.3,5.9-13.3,12.9V65H153.2z"/>
	</g>
	<path class="st2" d="M376.8,35.7c4-2.3,7.7-4.5,11.7-6.8c-1.3-2.3-1-1.7-2.2-3.9c-1.2-2.3-0.8-3.2,1.8-3.2c7.5-0.1,15-0.1,22.5,0
		c2.2,0,2.8,1,1.6,2.9c-3.7,6.5-7.5,13-11.2,19.5c-1.2,2.1-2.3,2.1-3.5,0c-1.3-2.1-1-1.6-2.3-3.9c-3.9,2.3-7.8,4.5-11.7,6.8
		c0.2,0.6,0.5,1,0.8,1.4c2.9,5,4.2,7.4,7.2,12.4c3.5,5.9,10.9,6.2,15.2,0.8c0.5-0.6,0.9-1.2,1.3-1.9c7.1-12.3,14.2-24.5,21.2-36.8
		c0.7-1.2,1.4-2.6,1.7-4c1.2-5.5-2.9-10.8-8.6-10.8c-15.2-0.1-30.4-0.1-45.5,0c-6.9,0.1-11.1,7-8,13.1c1,2,2.2,3.9,3.3,5.8
		C374,30.8,374.5,31.7,376.8,35.7z"/>
	<path class="st3" d="M343.1,73.6c0-4.6,0-13.5,0-13.5s-1.9,0-4.4,0c-2.6,0-3.1-0.9-1.8-3.1c3.7-6.5,7.4-12.9,11.2-19.3
		c1.1-1.9,2.1-2.1,3.3,0c3.7,6.5,7.5,12.9,11.1,19.4c1.2,2.1,0.6,3-1.7,3c-2.4,0-4.5,0-4.5,0l0,13.5c0,0,10,0,15.8,0
		c6.8-0.1,10.8-6.3,8.2-12.6c-0.3-0.7-0.6-1.4-1-2c-7-12.2-14-24.4-21-36.5c-0.7-1.2-1.6-2.5-2.6-3.4c-4.1-3.8-10.7-2.9-13.6,2
		c-7.6,13-15.2,26-22.6,39.1c-3.4,6,0.5,13,7.2,13.4C328.9,73.7,338.3,73.6,343.1,73.6z"/>
</g>
</svg>
